<svg width="25" height="24" viewBox="0 0 25 24" fill="none" xmlns="http://www.w3.org/2000/svg">
<g id="blog-pencil" clip-path="url(#clip0_19_138)">
<path id="Vector" d="M19.5 2H5.5C2.74 2 0.5 4.24 0.5 7V17C0.5 19.76 2.74 22 5.5 22H12.5C13.05 22 13.5 21.55 13.5 21C13.5 20.45 13.05 20 12.5 20H5.5C3.85 20 2.5 18.65 2.5 17V9H22.5V14C22.5 14.55 22.95 15 23.5 15C24.05 15 24.5 14.55 24.5 14V7C24.5 4.24 22.26 2 19.5 2ZM2.5 7C2.5 5.35 3.85 4 5.5 4H19.5C21.15 4 22.5 5.35 22.5 7H2.5ZM16.91 12.17C16.15 11.41 15.15 11 14.08 11H12.49C11.94 11 11.49 11.45 11.49 12V13.59C11.49 14.66 11.91 15.66 12.66 16.42L19.37 23.13C19.94 23.7 20.69 24.01 21.49 24.01C22.29 24.01 23.04 23.7 23.61 23.13C24.18 22.56 24.49 21.81 24.49 21.01C24.49 20.21 24.18 19.46 23.61 18.89L16.9 12.18L16.91 12.17ZM22.2 21.71C21.82 22.09 21.16 22.09 20.79 21.71L14.08 15C13.7 14.62 13.49 14.12 13.49 13.59V13H14.08C14.61 13 15.12 13.21 15.49 13.59L22.2 20.3C22.39 20.49 22.49 20.74 22.49 21.01C22.49 21.28 22.39 21.53 22.2 21.72V21.71Z" fill="#263238"/>
</g>
<defs>
<clipPath id="clip0_19_138">
<rect width="24" height="24" fill="white" transform="translate(0.5)"/>
</clipPath>
</defs>
</svg>
