<svg width="72" height="72" viewBox="0 0 72 72" fill="none" xmlns="http://www.w3.org/2000/svg">
<rect width="72" height="72" rx="10" fill="#B5FFE0" fill-opacity="0.3"/>
<g clip-path="url(#clip0_15_89)">
<path d="M45.9167 19H26.0833C24.2054 19.0022 22.405 19.7492 21.0771 21.0771C19.7492 22.405 19.0022 24.2054 19 26.0833L19 45.9167C19.0022 47.7946 19.7492 49.595 21.0771 50.9229C22.405 52.2508 24.2054 52.9977 26.0833 53H45.9167C47.7946 52.9977 49.595 52.2508 50.9229 50.9229C52.2508 49.595 52.9977 47.7946 53 45.9167V26.0833C52.9977 24.2054 52.2508 22.405 50.9229 21.0771C49.595 19.7492 47.7946 19.0022 45.9167 19ZM50.1667 45.9167C50.1667 47.0438 49.7189 48.1248 48.9219 48.9219C48.1248 49.7189 47.0438 50.1667 45.9167 50.1667H26.0833C24.9562 50.1667 23.8752 49.7189 23.0781 48.9219C22.2811 48.1248 21.8333 47.0438 21.8333 45.9167V26.0833C21.8333 24.9562 22.2811 23.8752 23.0781 23.0781C23.8752 22.2811 24.9562 21.8333 26.0833 21.8333H45.9167C47.0438 21.8333 48.1248 22.2811 48.9219 23.0781C49.7189 23.8752 50.1667 24.9562 50.1667 26.0833V45.9167Z" fill="#4AD894"/>
<path d="M32.2217 41.5519L26.6698 36C26.4041 35.7344 26.0438 35.5852 25.6682 35.5852C25.2925 35.5852 24.9323 35.7344 24.6666 36C24.401 36.2656 24.2518 36.6259 24.2518 37.0016C24.2518 37.3772 24.401 37.7375 24.6666 38.0032L30.2185 43.5551C30.4816 43.8183 30.794 44.0271 31.1379 44.1696C31.4817 44.312 31.8502 44.3853 32.2224 44.3853C32.5946 44.3853 32.9631 44.312 33.3069 44.1696C33.6508 44.0271 33.9632 43.8183 34.2263 43.5551L47.3333 30.4481C47.5989 30.1824 47.7481 29.8221 47.7481 29.4465C47.7481 29.0708 47.5989 28.7106 47.3333 28.4449C47.0676 28.1793 46.7073 28.0301 46.3317 28.0301C45.956 28.0301 45.5958 28.1793 45.3301 28.4449L32.2217 41.5519Z" fill="#4AD894"/>
</g>
<defs>
<clipPath id="clip0_15_89">
<rect width="34" height="34" fill="white" transform="translate(19 19)"/>
</clipPath>
</defs>
</svg>
