<svg width="72" height="72" viewBox="0 0 72 72" fill="none" xmlns="http://www.w3.org/2000/svg">
<rect width="72" height="72" rx="10" fill="#B5E4FF" fill-opacity="0.3"/>
<g clip-path="url(#clip0_15_79)">
<path d="M36 26.0833C35.4364 26.0833 34.8959 25.8595 34.4974 25.4609C34.0989 25.0624 33.875 24.5219 33.875 23.9583V21.125C33.875 20.5614 34.0989 20.0209 34.4974 19.6224C34.8959 19.2239 35.4364 19 36 19C36.5636 19 37.1041 19.2239 37.5026 19.6224C37.9011 20.0209 38.125 20.5614 38.125 21.125V23.9583C38.125 24.5219 37.9011 25.0624 37.5026 25.4609C37.1041 25.8595 36.5636 26.0833 36 26.0833ZM38.125 50.875V48.0417C38.125 47.4781 37.9011 46.9376 37.5026 46.5391C37.1041 46.1406 36.5636 45.9167 36 45.9167C35.4364 45.9167 34.8959 46.1406 34.4974 46.5391C34.0989 46.9376 33.875 47.4781 33.875 48.0417V50.875C33.875 51.4386 34.0989 51.9791 34.4974 52.3776C34.8959 52.7761 35.4364 53 36 53C36.5636 53 37.1041 52.7761 37.5026 52.3776C37.9011 51.9791 38.125 51.4386 38.125 50.875ZM26.0833 36C26.0833 35.4364 25.8595 34.8959 25.4609 34.4974C25.0624 34.0989 24.5219 33.875 23.9583 33.875H21.125C20.5614 33.875 20.0209 34.0989 19.6224 34.4974C19.2239 34.8959 19 35.4364 19 36C19 36.5636 19.2239 37.1041 19.6224 37.5026C20.0209 37.9011 20.5614 38.125 21.125 38.125H23.9583C24.5219 38.125 25.0624 37.9011 25.4609 37.5026C25.8595 37.1041 26.0833 36.5636 26.0833 36ZM53 36C53 35.4364 52.7761 34.8959 52.3776 34.4974C51.9791 34.0989 51.4386 33.875 50.875 33.875H48.0417C47.4781 33.875 46.9376 34.0989 46.5391 34.4974C46.1406 34.8959 45.9167 35.4364 45.9167 36C45.9167 36.5636 46.1406 37.1041 46.5391 37.5026C46.9376 37.9011 47.4781 38.125 48.0417 38.125H50.875C51.4386 38.125 51.9791 37.9011 52.3776 37.5026C52.7761 37.1041 53 36.5636 53 36ZM43.7577 26.5494L45.1474 24.0802C45.413 23.5901 45.4754 23.0152 45.3211 22.4795C45.1669 21.9439 44.8083 21.4903 44.3227 21.2165C43.8371 20.9428 43.2633 20.8708 42.7252 21.0161C42.187 21.1615 41.7275 21.5124 41.4457 21.9934L40.0545 24.4627C39.9174 24.7059 39.8295 24.9737 39.7959 25.2509C39.7624 25.5281 39.7837 25.8092 39.8589 26.0781C39.934 26.3471 40.0614 26.5985 40.2337 26.8182C40.4061 27.0379 40.6201 27.2214 40.8634 27.3583C41.1807 27.5388 41.5396 27.6335 41.9047 27.6332C42.2819 27.6333 42.6524 27.5329 42.9781 27.3425C43.3037 27.152 43.5728 26.8783 43.7577 26.5494ZM30.5543 50.0066L31.9455 47.5373C32.2222 47.0463 32.2925 46.4654 32.141 45.9225C31.9894 45.3796 31.6284 44.9191 31.1373 44.6424C30.6462 44.3657 30.0653 44.2953 29.5224 44.4469C28.9795 44.5985 28.5191 44.9595 28.2423 45.4506L26.8526 47.9198C26.587 48.4099 26.5246 48.9848 26.6789 49.5205C26.8331 50.0561 27.1917 50.5097 27.6773 50.7835C28.1629 51.0572 28.7367 51.1292 29.2748 50.9839C29.813 50.8385 30.2725 50.4876 30.5543 50.0066ZM27.3583 31.1366C27.635 30.6457 27.7053 30.065 27.5539 29.5223C27.4025 28.9795 27.0417 28.5191 26.5508 28.2423L24.0802 26.8526C23.5901 26.587 23.0152 26.5246 22.4795 26.6789C21.9439 26.8331 21.4903 27.1917 21.2165 27.6773C20.9428 28.1629 20.8708 28.7367 21.0161 29.2748C21.1615 29.813 21.5124 30.2725 21.9934 30.5543L24.4627 31.9455C24.7059 32.0826 24.9737 32.1705 25.2509 32.2041C25.5281 32.2376 25.8092 32.2163 26.0781 32.1411C26.3471 32.066 26.5985 31.9386 26.8182 31.7663C27.0379 31.5939 27.2214 31.3799 27.3583 31.1366ZM50.8155 44.3399C51.0921 43.849 51.1625 43.2683 51.0111 42.7256C50.8596 42.1828 50.4988 41.7224 50.008 41.4457L47.5387 40.0545C47.2956 39.9175 47.0278 39.8297 46.7508 39.7962C46.4737 39.7626 46.1927 39.784 45.9239 39.859C45.6551 39.9341 45.4037 40.0613 45.184 40.2336C44.9644 40.4058 44.7808 40.6196 44.6438 40.8627C44.5068 41.1059 44.419 41.3736 44.3855 41.6507C44.3519 41.9278 44.3733 42.2088 44.4483 42.4776C44.5999 43.0205 44.9609 43.4809 45.452 43.7577L47.9213 45.1474C48.4122 45.4241 48.9928 45.4944 49.5356 45.343C50.0783 45.1915 50.5387 44.8307 50.8155 44.3399ZM31.1366 27.3583C31.6276 27.0818 31.9887 26.6215 32.1404 26.0787C32.2922 25.536 32.222 24.9552 31.9455 24.4641L30.5543 21.9934C30.2725 21.5124 29.813 21.1615 29.2748 21.0161C28.7367 20.8708 28.1629 20.9428 27.6773 21.2165C27.1917 21.4903 26.8331 21.9439 26.6789 22.4795C26.5246 23.0152 26.587 23.5901 26.8526 24.0802L28.2423 26.5494C28.4274 26.878 28.6965 27.1515 29.0222 27.3417C29.3478 27.5319 29.7182 27.632 30.0953 27.6318C30.4603 27.6325 30.8191 27.5383 31.1366 27.3583ZM44.3399 50.8155C44.8307 50.5387 45.1915 50.0783 45.343 49.5356C45.4944 48.9928 45.4241 48.4122 45.1474 47.9213L43.7577 45.452C43.4809 44.9609 43.0205 44.5999 42.4776 44.4483C41.9347 44.2968 41.3538 44.3671 40.8627 44.6438C40.3716 44.9205 40.0106 45.381 39.859 45.9239C39.7075 46.4668 39.7778 47.0477 40.0545 47.5387L41.4457 50.008C41.7224 50.4988 42.1828 50.8596 42.7256 51.0111C43.2683 51.1625 43.849 51.0921 44.3399 50.8155ZM47.5373 31.9455L50.0066 30.5543C50.4876 30.2725 50.8385 29.813 50.9839 29.2748C51.1292 28.7367 51.0572 28.1629 50.7835 27.6773C50.5097 27.1917 50.0561 26.8331 49.5205 26.6789C48.9848 26.5246 48.4099 26.587 47.9198 26.8526L45.4506 28.2423C44.9595 28.5191 44.5985 28.9795 44.4469 29.5224C44.2953 30.0653 44.3657 30.6462 44.6424 31.1373C44.9191 31.6284 45.3796 31.9894 45.9225 32.141C46.4654 32.2925 47.0463 32.2222 47.5373 31.9455ZM24.0802 45.1474L26.5494 43.7577C26.7926 43.6206 27.0064 43.4371 27.1786 43.2174C27.3508 42.9978 27.478 42.7464 27.5531 42.4776C27.6281 42.2088 27.6495 41.9278 27.616 41.6507C27.5824 41.3736 27.4946 41.1059 27.3576 40.8627C27.2206 40.6196 27.037 40.4058 26.8174 40.2336C26.5978 40.0613 26.3464 39.9341 26.0775 39.859C25.8087 39.784 25.5277 39.7626 25.2507 39.7962C24.9736 39.8297 24.7058 39.9175 24.4627 40.0545L21.9934 41.4457C21.5846 41.6766 21.2638 42.0364 21.0811 42.4689C20.8984 42.9014 20.8641 43.3823 20.9835 43.8363C21.103 44.2904 21.3694 44.6921 21.7412 44.9788C22.1131 45.2655 22.5694 45.4209 23.0389 45.4208C23.4039 45.4217 23.7627 45.3274 24.0802 45.1474Z" fill="#4AA4D8"/>
</g>
<defs>
<clipPath id="clip0_15_79">
<rect width="34" height="34" fill="white" transform="translate(19 19)"/>
</clipPath>
</defs>
</svg>
