<svg width="25" height="24" viewBox="0 0 25 24" fill="none" xmlns="http://www.w3.org/2000/svg">
<g id="eye" clip-path="url(#clip0_19_135)">
<path id="Vector" d="M23.7711 9.419C22.2201 6.893 18.6921 2.655 12.5001 2.655C6.30805 2.655 2.78005 6.893 1.22905 9.419C0.749579 10.1945 0.495605 11.0882 0.495605 12C0.495605 12.9118 0.749579 13.8055 1.22905 14.581C2.78005 17.107 6.30805 21.345 12.5001 21.345C18.6921 21.345 22.2201 17.107 23.7711 14.581C24.2505 13.8055 24.5045 12.9118 24.5045 12C24.5045 11.0882 24.2505 10.1945 23.7711 9.419ZM22.0661 13.534C20.7341 15.7 17.7191 19.345 12.5001 19.345C7.28105 19.345 4.26605 15.7 2.93405 13.534C2.64919 13.073 2.4983 12.5419 2.4983 12C2.4983 11.4581 2.64919 10.927 2.93405 10.466C4.26605 8.3 7.28105 4.655 12.5001 4.655C17.7191 4.655 20.7341 8.296 22.0661 10.466C22.3509 10.927 22.5018 11.4581 22.5018 12C22.5018 12.5419 22.3509 13.073 22.0661 13.534Z" fill="#263238"/>
<path id="Vector_2" d="M12.5 7C11.5111 7 10.5444 7.29324 9.72215 7.84265C8.89991 8.39206 8.25904 9.17295 7.8806 10.0866C7.50217 11.0002 7.40315 12.0055 7.59608 12.9755C7.789 13.9454 8.26521 14.8363 8.96447 15.5355C9.66373 16.2348 10.5546 16.711 11.5246 16.9039C12.4945 17.0969 13.4998 16.9978 14.4134 16.6194C15.327 16.241 16.1079 15.6001 16.6574 14.7779C17.2068 13.9556 17.5 12.9889 17.5 12C17.4984 10.6744 16.9711 9.40356 16.0338 8.46622C15.0964 7.52888 13.8256 7.00159 12.5 7ZM12.5 15C11.9067 15 11.3266 14.8241 10.8333 14.4944C10.3399 14.1648 9.95543 13.6962 9.72836 13.1481C9.5013 12.5999 9.44189 11.9967 9.55765 11.4147C9.6734 10.8328 9.95912 10.2982 10.3787 9.87868C10.7982 9.45912 11.3328 9.1734 11.9147 9.05764C12.4967 8.94189 13.0999 9.0013 13.6481 9.22836C14.1962 9.45542 14.6648 9.83994 14.9944 10.3333C15.3241 10.8266 15.5 11.4067 15.5 12C15.5 12.7956 15.1839 13.5587 14.6213 14.1213C14.0587 14.6839 13.2957 15 12.5 15Z" fill="#263238"/>
</g>
<defs>
<clipPath id="clip0_19_135">
<rect width="24" height="24" fill="white" transform="translate(0.5)"/>
</clipPath>
</defs>
</svg>
