<svg width="99" height="18" viewBox="0 0 99 18" fill="none" xmlns="http://www.w3.org/2000/svg">
<path d="M0.984234 14V0.589999H9.71423V2.21H2.74823V6.458H9.35424V8.078H2.74823V12.38H9.71423V14H0.984234ZM15.1763 14.216C14.2043 14.216 13.3583 13.976 12.6383 13.496C11.9183 13.016 11.4083 12.368 11.1083 11.552L12.4403 10.904C12.7163 11.48 13.0943 11.936 13.5743 12.272C14.0543 12.608 14.5883 12.776 15.1763 12.776C15.7043 12.776 16.1423 12.65 16.4903 12.398C16.8383 12.146 17.0123 11.816 17.0123 11.408C17.0123 11.12 16.9283 10.892 16.7603 10.724C16.6043 10.544 16.4123 10.406 16.1843 10.31C15.9563 10.202 15.7463 10.124 15.5543 10.076L14.0963 9.662C13.2203 9.41 12.5783 9.05 12.1703 8.582C11.7743 8.114 11.5763 7.568 11.5763 6.944C11.5763 6.368 11.7203 5.87 12.0083 5.45C12.3083 5.018 12.7103 4.682 13.2143 4.442C13.7303 4.202 14.3063 4.082 14.9423 4.082C15.7943 4.082 16.5563 4.298 17.2283 4.73C17.9123 5.162 18.3983 5.768 18.6863 6.548L17.3183 7.178C17.1023 6.674 16.7783 6.278 16.3463 5.99C15.9143 5.69 15.4283 5.54 14.8883 5.54C14.3963 5.54 14.0063 5.666 13.7183 5.918C13.4303 6.158 13.2863 6.464 13.2863 6.836C13.2863 7.112 13.3583 7.34 13.5023 7.52C13.6463 7.688 13.8203 7.82 14.0243 7.916C14.2283 8 14.4263 8.072 14.6183 8.132L16.2023 8.6C16.9943 8.828 17.6063 9.182 18.0383 9.662C18.4823 10.142 18.7043 10.718 18.7043 11.39C18.7043 11.93 18.5543 12.416 18.2543 12.848C17.9543 13.28 17.5403 13.616 17.0123 13.856C16.4843 14.096 15.8723 14.216 15.1763 14.216ZM20.8956 14V4.298H22.5696V14H20.8956ZM20.8956 2.75V0.589999H22.5696V2.75H20.8956ZM29.7931 17.96C29.1091 17.96 28.4731 17.852 27.8851 17.636C27.3091 17.42 26.8111 17.12 26.3911 16.736C25.9831 16.364 25.6711 15.926 25.4551 15.422L27.0211 14.702C27.1891 15.158 27.5071 15.542 27.9751 15.854C28.4551 16.178 29.0551 16.34 29.7751 16.34C30.3271 16.34 30.8251 16.232 31.2691 16.016C31.7251 15.812 32.0851 15.5 32.3491 15.08C32.6131 14.672 32.7451 14.174 32.7451 13.586V11.408L33.0511 11.732C32.7151 12.392 32.2291 12.896 31.5931 13.244C30.9691 13.592 30.2791 13.766 29.5231 13.766C28.6111 13.766 27.7951 13.556 27.0751 13.136C26.3551 12.704 25.7911 12.122 25.3831 11.39C24.9751 10.646 24.7711 9.824 24.7711 8.924C24.7711 8.012 24.9751 7.19 25.3831 6.458C25.7911 5.726 26.3491 5.15 27.0571 4.73C27.7771 4.298 28.5931 4.082 29.5051 4.082C30.2611 4.082 30.9451 4.256 31.5571 4.604C32.1811 4.94 32.6791 5.408 33.0511 6.008L32.7991 6.458V4.298H34.4371V13.586C34.4371 14.426 34.2391 15.176 33.8431 15.836C33.4471 16.496 32.8951 17.012 32.1871 17.384C31.4911 17.768 30.6931 17.96 29.7931 17.96ZM29.6671 12.146C30.2431 12.146 30.7591 12.002 31.2151 11.714C31.6831 11.426 32.0551 11.042 32.3311 10.562C32.6071 10.07 32.7451 9.524 32.7451 8.924C32.7451 8.336 32.6071 7.796 32.3311 7.304C32.0551 6.812 31.6831 6.422 31.2151 6.134C30.7591 5.846 30.2431 5.702 29.6671 5.702C29.0791 5.702 28.5451 5.846 28.0651 6.134C27.5851 6.422 27.2071 6.812 26.9311 7.304C26.6671 7.784 26.5351 8.324 26.5351 8.924C26.5351 9.524 26.6671 10.07 26.9311 10.562C27.2071 11.042 27.5791 11.426 28.0471 11.714C28.5271 12.002 29.0671 12.146 29.6671 12.146ZM43.3863 14.216C42.4263 14.216 41.5383 14.042 40.7223 13.694C39.9063 13.346 39.1923 12.86 38.5803 12.236C37.9683 11.612 37.4883 10.88 37.1403 10.04C36.8043 9.2 36.6363 8.282 36.6363 7.286C36.6363 6.29 36.7983 5.372 37.1223 4.532C37.4583 3.68 37.9263 2.948 38.5263 2.336C39.1383 1.712 39.8523 1.232 40.6683 0.895999C41.4843 0.547999 42.3723 0.373999 43.3323 0.373999C44.2923 0.373999 45.1503 0.536 45.9063 0.86C46.6743 1.184 47.3223 1.616 47.8503 2.156C48.3783 2.684 48.7563 3.266 48.9843 3.902L46.8063 4.946C46.5543 4.25 46.1283 3.686 45.5283 3.254C44.9283 2.822 44.1963 2.606 43.3323 2.606C42.4923 2.606 41.7483 2.804 41.1003 3.2C40.4643 3.596 39.9663 4.142 39.6063 4.838C39.2583 5.534 39.0843 6.35 39.0843 7.286C39.0843 8.222 39.2643 9.044 39.6243 9.752C39.9963 10.448 40.5063 10.994 41.1543 11.39C41.8023 11.786 42.5463 11.984 43.3863 11.984C44.0703 11.984 44.7003 11.852 45.2763 11.588C45.8523 11.312 46.3143 10.928 46.6623 10.436C47.0103 9.932 47.1843 9.338 47.1843 8.654V7.628L48.3003 8.6H43.3323V6.53H49.6323V7.88C49.6323 8.912 49.4583 9.824 49.1103 10.616C48.7623 11.408 48.2883 12.074 47.6883 12.614C47.1003 13.142 46.4343 13.544 45.6903 13.82C44.9463 14.084 44.1783 14.216 43.3863 14.216ZM51.5694 14V0.589999H56.5554C57.4674 0.589999 58.2714 0.757999 58.9674 1.094C59.6754 1.418 60.2274 1.898 60.6234 2.534C61.0194 3.158 61.2174 3.92 61.2174 4.82C61.2174 5.744 60.9954 6.53 60.5514 7.178C60.1194 7.826 59.5314 8.306 58.7874 8.618L61.8654 14H59.0934L55.7994 8.114L57.3834 9.05H54.0174V14H51.5694ZM54.0174 6.89H56.5914C57.0354 6.89 57.4194 6.806 57.7434 6.638C58.0674 6.458 58.3194 6.212 58.4994 5.9C58.6794 5.588 58.7694 5.228 58.7694 4.82C58.7694 4.4 58.6794 4.04 58.4994 3.74C58.3194 3.428 58.0674 3.188 57.7434 3.02C57.4194 2.84 57.0354 2.75 56.5914 2.75H54.0174V6.89ZM68.5458 14.216C67.4778 14.216 66.5418 13.928 65.7378 13.352C64.9338 12.776 64.3038 11.966 63.8478 10.922C63.4038 9.878 63.1818 8.666 63.1818 7.286C63.1818 5.894 63.4038 4.682 63.8478 3.65C64.2918 2.618 64.9158 1.814 65.7198 1.238C66.5238 0.661999 67.4598 0.373999 68.5278 0.373999C69.6198 0.373999 70.5618 0.661999 71.3538 1.238C72.1578 1.814 72.7878 2.624 73.2438 3.668C73.6998 4.7 73.9278 5.906 73.9278 7.286C73.9278 8.666 73.6998 9.878 73.2438 10.922C72.7998 11.954 72.1758 12.764 71.3718 13.352C70.5678 13.928 69.6258 14.216 68.5458 14.216ZM68.5638 11.984C69.1758 11.984 69.6978 11.798 70.1298 11.426C70.5618 11.042 70.8918 10.502 71.1198 9.806C71.3598 9.098 71.4798 8.258 71.4798 7.286C71.4798 6.314 71.3598 5.48 71.1198 4.784C70.8918 4.076 70.5558 3.536 70.1118 3.164C69.6798 2.792 69.1518 2.606 68.5278 2.606C67.9278 2.606 67.4118 2.792 66.9798 3.164C66.5478 3.536 66.2118 4.076 65.9718 4.784C65.7438 5.48 65.6298 6.314 65.6298 7.286C65.6298 8.246 65.7438 9.08 65.9718 9.788C66.2118 10.484 66.5478 11.024 66.9798 11.408C67.4238 11.792 67.9518 11.984 68.5638 11.984ZM81.38 14.216C80.348 14.216 79.43 14 78.626 13.568C77.834 13.136 77.21 12.542 76.754 11.786C76.298 11.03 76.07 10.172 76.07 9.212V0.589999H78.518V9.086C78.518 9.638 78.638 10.136 78.878 10.58C79.13 11.024 79.472 11.372 79.904 11.624C80.336 11.864 80.828 11.984 81.38 11.984C81.944 11.984 82.436 11.864 82.856 11.624C83.288 11.372 83.624 11.024 83.864 10.58C84.116 10.136 84.242 9.638 84.242 9.086V0.589999H86.69V9.212C86.69 10.172 86.462 11.03 86.006 11.786C85.55 12.542 84.92 13.136 84.116 13.568C83.324 14 82.412 14.216 81.38 14.216ZM89.1339 14V0.589999H94.1379C95.0499 0.589999 95.8539 0.757999 96.5499 1.094C97.2579 1.418 97.8099 1.898 98.2059 2.534C98.6019 3.158 98.7999 3.92 98.7999 4.82C98.7999 5.708 98.5959 6.47 98.1879 7.106C97.7919 7.73 97.2459 8.21 96.5499 8.546C95.8539 8.882 95.0499 9.05 94.1379 9.05H91.5819V14H89.1339ZM91.5819 6.89H94.1739C94.6179 6.89 95.0019 6.806 95.3259 6.638C95.6499 6.458 95.9019 6.212 96.0819 5.9C96.2619 5.588 96.3519 5.228 96.3519 4.82C96.3519 4.4 96.2619 4.04 96.0819 3.74C95.9019 3.428 95.6499 3.188 95.3259 3.02C95.0019 2.84 94.6179 2.75 94.1739 2.75H91.5819V6.89Z" fill="#F5F5F5"/>
</svg>
