<svg width="263" height="72" viewBox="0 0 263 72" fill="none" xmlns="http://www.w3.org/2000/svg">
<circle cx="26" cy="26" r="26" fill="#570DF8"/>
<circle cx="39" cy="46" r="26" fill="#F000B8"/>
<path d="M102.032 40.128C102.032 41.088 101.968 41.952 101.84 42.72H82.4C82.56 44.64 83.232 46.144 84.416 47.232C85.6 48.32 87.056 48.864 88.784 48.864C91.28 48.864 93.056 47.792 94.112 45.648H101.36C100.592 48.208 99.12 50.32 96.944 51.984C94.768 53.616 92.096 54.432 88.928 54.432C86.368 54.432 84.064 53.872 82.016 52.752C80 51.6 78.416 49.984 77.264 47.904C76.144 45.824 75.584 43.424 75.584 40.704C75.584 37.952 76.144 35.536 77.264 33.456C78.384 31.376 79.952 29.776 81.968 28.656C83.984 27.536 86.304 26.976 88.928 26.976C91.456 26.976 93.712 27.52 95.696 28.608C97.712 29.696 99.264 31.248 100.352 33.264C101.472 35.248 102.032 37.536 102.032 40.128ZM95.072 38.208C95.04 36.48 94.416 35.104 93.2 34.08C91.984 33.024 90.496 32.496 88.736 32.496C87.072 32.496 85.664 33.008 84.512 34.032C83.392 35.024 82.704 36.416 82.448 38.208H95.072ZM129.737 20.496V25.92H120.809V54H114.089V25.92H105.161V20.496H129.737ZM132.912 40.608C132.912 37.92 133.44 35.536 134.496 33.456C135.584 31.376 137.04 29.776 138.864 28.656C140.72 27.536 142.784 26.976 145.056 26.976C147.04 26.976 148.768 27.376 150.24 28.176C151.744 28.976 152.944 29.984 153.84 31.2V27.408H160.608V54H153.84V50.112C152.976 51.36 151.776 52.4 150.24 53.232C148.736 54.032 146.992 54.432 145.008 54.432C142.768 54.432 140.72 53.856 138.864 52.704C137.04 51.552 135.584 49.936 134.496 47.856C133.44 45.744 132.912 43.328 132.912 40.608ZM153.84 40.704C153.84 39.072 153.52 37.68 152.88 36.528C152.24 35.344 151.376 34.448 150.288 33.84C149.2 33.2 148.032 32.88 146.784 32.88C145.536 32.88 144.384 33.184 143.328 33.792C142.272 34.4 141.408 35.296 140.736 36.48C140.096 37.632 139.776 39.008 139.776 40.608C139.776 42.208 140.096 43.616 140.736 44.832C141.408 46.016 142.272 46.928 143.328 47.568C144.416 48.208 145.568 48.528 146.784 48.528C148.032 48.528 149.2 48.224 150.288 47.616C151.376 46.976 152.24 46.08 152.88 44.928C153.52 43.744 153.84 42.336 153.84 40.704ZM177.347 54.432C175.171 54.432 173.219 54.048 171.491 53.28C169.763 52.48 168.387 51.408 167.363 50.064C166.371 48.72 165.827 47.232 165.731 45.6H172.499C172.627 46.624 173.123 47.472 173.987 48.144C174.883 48.816 175.987 49.152 177.299 49.152C178.579 49.152 179.571 48.896 180.275 48.384C181.011 47.872 181.379 47.216 181.379 46.416C181.379 45.552 180.931 44.912 180.035 44.496C179.171 44.048 177.779 43.568 175.859 43.056C173.875 42.576 172.243 42.08 170.963 41.568C169.715 41.056 168.627 40.272 167.699 39.216C166.803 38.16 166.355 36.736 166.355 34.944C166.355 33.472 166.771 32.128 167.603 30.912C168.467 29.696 169.683 28.736 171.251 28.032C172.851 27.328 174.723 26.976 176.867 26.976C180.035 26.976 182.563 27.776 184.451 29.376C186.339 30.944 187.379 33.072 187.571 35.76H181.139C181.043 34.704 180.595 33.872 179.795 33.264C179.027 32.624 177.987 32.304 176.675 32.304C175.459 32.304 174.515 32.528 173.843 32.976C173.203 33.424 172.883 34.048 172.883 34.848C172.883 35.744 173.331 36.432 174.227 36.912C175.123 37.36 176.515 37.824 178.403 38.304C180.323 38.784 181.907 39.28 183.155 39.792C184.403 40.304 185.475 41.104 186.371 42.192C187.299 43.248 187.779 44.656 187.811 46.416C187.811 47.952 187.379 49.328 186.515 50.544C185.683 51.76 184.467 52.72 182.867 53.424C181.299 54.096 179.459 54.432 177.347 54.432ZM209.072 54L200.048 42.672V54H193.328V18.48H200.048V38.688L208.976 27.408H217.712L206 40.752L217.808 54H209.072ZM231.535 54.432C229.359 54.432 227.407 54.048 225.679 53.28C223.951 52.48 222.575 51.408 221.551 50.064C220.559 48.72 220.015 47.232 219.919 45.6H226.687C226.815 46.624 227.311 47.472 228.175 48.144C229.071 48.816 230.175 49.152 231.487 49.152C232.767 49.152 233.759 48.896 234.463 48.384C235.199 47.872 235.567 47.216 235.567 46.416C235.567 45.552 235.119 44.912 234.223 44.496C233.359 44.048 231.967 43.568 230.047 43.056C228.063 42.576 226.431 42.08 225.151 41.568C223.903 41.056 222.815 40.272 221.887 39.216C220.991 38.16 220.543 36.736 220.543 34.944C220.543 33.472 220.959 32.128 221.791 30.912C222.655 29.696 223.871 28.736 225.439 28.032C227.039 27.328 228.911 26.976 231.055 26.976C234.223 26.976 236.751 27.776 238.639 29.376C240.527 30.944 241.567 33.072 241.759 35.76H235.327C235.231 34.704 234.783 33.872 233.983 33.264C233.215 32.624 232.175 32.304 230.863 32.304C229.647 32.304 228.703 32.528 228.031 32.976C227.391 33.424 227.071 34.048 227.071 34.848C227.071 35.744 227.519 36.432 228.415 36.912C229.311 37.36 230.703 37.824 232.591 38.304C234.511 38.784 236.095 39.28 237.343 39.792C238.591 40.304 239.663 41.104 240.559 42.192C241.487 43.248 241.967 44.656 241.999 46.416C241.999 47.952 241.567 49.328 240.703 50.544C239.871 51.76 238.655 52.72 237.055 53.424C235.487 54.096 233.647 54.432 231.535 54.432Z" fill="#262B32"/>
</svg>
