<svg width="64" height="71" viewBox="0 0 64 71" fill="none" xmlns="http://www.w3.org/2000/svg">
<circle cx="27" cy="18" r="18" fill="#570DF8"/>
<circle cx="36" cy="32" r="18" fill="#F000B8"/>
<path d="M10.512 63.798C10.512 64.158 10.488 64.482 10.44 64.77H3.15C3.21 65.49 3.462 66.054 3.906 66.462C4.35 66.87 4.896 67.074 5.544 67.074C6.48 67.074 7.146 66.672 7.542 65.868H10.26C9.972 66.828 9.42 67.62 8.604 68.244C7.788 68.856 6.786 69.162 5.598 69.162C4.638 69.162 3.774 68.952 3.006 68.532C2.25 68.1 1.656 67.494 1.224 66.714C0.804 65.934 0.594 65.034 0.594 64.014C0.594 62.982 0.804 62.076 1.224 61.296C1.644 60.516 2.232 59.916 2.988 59.496C3.744 59.076 4.614 58.866 5.598 58.866C6.546 58.866 7.392 59.07 8.136 59.478C8.892 59.886 9.474 60.468 9.882 61.224C10.302 61.968 10.512 62.826 10.512 63.798ZM7.902 63.078C7.89 62.43 7.656 61.914 7.2 61.53C6.744 61.134 6.186 60.936 5.526 60.936C4.902 60.936 4.374 61.128 3.942 61.512C3.522 61.884 3.264 62.406 3.168 63.078H7.902ZM20.9014 56.436V58.47H17.5534V69H15.0334V58.47H11.6854V56.436H20.9014ZM22.092 63.978C22.092 62.97 22.29 62.076 22.686 61.296C23.094 60.516 23.64 59.916 24.324 59.496C25.02 59.076 25.794 58.866 26.646 58.866C27.39 58.866 28.038 59.016 28.59 59.316C29.154 59.616 29.604 59.994 29.94 60.45V59.028H32.478V69H29.94V67.542C29.616 68.01 29.166 68.4 28.59 68.712C28.026 69.012 27.372 69.162 26.628 69.162C25.788 69.162 25.02 68.946 24.324 68.514C23.64 68.082 23.094 67.476 22.686 66.696C22.29 65.904 22.092 64.998 22.092 63.978ZM29.94 64.014C29.94 63.402 29.82 62.88 29.58 62.448C29.34 62.004 29.016 61.668 28.608 61.44C28.2 61.2 27.762 61.08 27.294 61.08C26.826 61.08 26.394 61.194 25.998 61.422C25.602 61.65 25.278 61.986 25.026 62.43C24.786 62.862 24.666 63.378 24.666 63.978C24.666 64.578 24.786 65.106 25.026 65.562C25.278 66.006 25.602 66.348 25.998 66.588C26.406 66.828 26.838 66.948 27.294 66.948C27.762 66.948 28.2 66.834 28.608 66.606C29.016 66.366 29.34 66.03 29.58 65.598C29.82 65.154 29.94 64.626 29.94 64.014ZM38.7553 69.162C37.9393 69.162 37.2073 69.018 36.5593 68.73C35.9113 68.43 35.3953 68.028 35.0113 67.524C34.6393 67.02 34.4353 66.462 34.3993 65.85H36.9373C36.9853 66.234 37.1713 66.552 37.4953 66.804C37.8313 67.056 38.2453 67.182 38.7373 67.182C39.2173 67.182 39.5893 67.086 39.8533 66.894C40.1293 66.702 40.2673 66.456 40.2673 66.156C40.2673 65.832 40.0993 65.592 39.7633 65.436C39.4393 65.268 38.9173 65.088 38.1973 64.896C37.4533 64.716 36.8413 64.53 36.3613 64.338C35.8933 64.146 35.4853 63.852 35.1373 63.456C34.8013 63.06 34.6333 62.526 34.6333 61.854C34.6333 61.302 34.7893 60.798 35.1013 60.342C35.4253 59.886 35.8813 59.526 36.4693 59.262C37.0693 58.998 37.7713 58.866 38.5753 58.866C39.7633 58.866 40.7113 59.166 41.4193 59.766C42.1273 60.354 42.5173 61.152 42.5893 62.16H40.1773C40.1413 61.764 39.9733 61.452 39.6733 61.224C39.3853 60.984 38.9953 60.864 38.5033 60.864C38.0473 60.864 37.6933 60.948 37.4413 61.116C37.2013 61.284 37.0813 61.518 37.0813 61.818C37.0813 62.154 37.2493 62.412 37.5853 62.592C37.9213 62.76 38.4433 62.934 39.1513 63.114C39.8713 63.294 40.4653 63.48 40.9333 63.672C41.4013 63.864 41.8033 64.164 42.1393 64.572C42.4873 64.968 42.6673 65.496 42.6793 66.156C42.6793 66.732 42.5173 67.248 42.1933 67.704C41.8813 68.16 41.4253 68.52 40.8253 68.784C40.2373 69.036 39.5473 69.162 38.7553 69.162ZM50.6519 69L47.2679 64.752V69H44.7479V55.68H47.2679V63.258L50.6159 59.028H53.8919L49.4999 64.032L53.9279 69H50.6519ZM59.0756 69.162C58.2596 69.162 57.5276 69.018 56.8796 68.73C56.2316 68.43 55.7156 68.028 55.3316 67.524C54.9596 67.02 54.7556 66.462 54.7196 65.85H57.2576C57.3056 66.234 57.4916 66.552 57.8156 66.804C58.1516 67.056 58.5656 67.182 59.0576 67.182C59.5376 67.182 59.9096 67.086 60.1736 66.894C60.4496 66.702 60.5876 66.456 60.5876 66.156C60.5876 65.832 60.4196 65.592 60.0836 65.436C59.7596 65.268 59.2376 65.088 58.5176 64.896C57.7736 64.716 57.1616 64.53 56.6816 64.338C56.2136 64.146 55.8056 63.852 55.4576 63.456C55.1216 63.06 54.9536 62.526 54.9536 61.854C54.9536 61.302 55.1096 60.798 55.4216 60.342C55.7456 59.886 56.2016 59.526 56.7896 59.262C57.3896 58.998 58.0916 58.866 58.8956 58.866C60.0836 58.866 61.0316 59.166 61.7396 59.766C62.4476 60.354 62.8376 61.152 62.9096 62.16H60.4976C60.4616 61.764 60.2936 61.452 59.9936 61.224C59.7056 60.984 59.3156 60.864 58.8236 60.864C58.3676 60.864 58.0136 60.948 57.7616 61.116C57.5216 61.284 57.4016 61.518 57.4016 61.818C57.4016 62.154 57.5696 62.412 57.9056 62.592C58.2416 62.76 58.7636 62.934 59.4716 63.114C60.1916 63.294 60.7856 63.48 61.2536 63.672C61.7216 63.864 62.1236 64.164 62.4596 64.572C62.8076 64.968 62.9876 65.496 62.9996 66.156C62.9996 66.732 62.8376 67.248 62.5136 67.704C62.2016 68.16 61.7456 68.52 61.1456 68.784C60.5576 69.036 59.8676 69.162 59.0756 69.162Z" fill="#262B32"/>
</svg>
