<svg width="20" height="20" viewBox="0 0 20 20" fill="none" xmlns="http://www.w3.org/2000/svg">
<g clip-path="url(#clip0_7_16)">
<path d="M19.6346 17.871L15.7636 13.9984C18.6601 10.1278 17.8703 4.64196 13.9997 1.74553C10.129 -1.15091 4.6432 -0.361145 1.74677 3.5095C-1.14967 7.38014 -0.359905 12.866 3.51074 15.7624C6.61996 18.0891 10.8904 18.0891 13.9997 15.7624L17.8723 19.635C18.3589 20.1217 19.1479 20.1217 19.6346 19.635C20.1212 19.1483 20.1212 18.3593 19.6346 17.8727L19.6346 17.871ZM8.78748 15.015C5.34743 15.015 2.55876 12.2263 2.55876 8.78624C2.55876 5.34619 5.34743 2.55752 8.78748 2.55752C12.2275 2.55752 15.0162 5.34619 15.0162 8.78624C15.0125 12.2247 12.226 15.0113 8.78748 15.015Z" fill="#263238"/>
</g>
<defs>
<clipPath id="clip0_7_16">
<rect width="20" height="20" fill="white"/>
</clipPath>
</defs>
</svg>
