<svg width="25" height="24" viewBox="0 0 25 24" fill="none" xmlns="http://www.w3.org/2000/svg">
<g id="trash" clip-path="url(#clip0_19_131)">
<path id="Vector" d="M21.5 4H18.4C18.1679 2.87141 17.5538 1.85735 16.6613 1.12872C15.7687 0.40009 14.6522 0.00145452 13.5 0L11.5 0C10.3478 0.00145452 9.23132 0.40009 8.33875 1.12872C7.44618 1.85735 6.8321 2.87141 6.6 4H3.5C3.23478 4 2.98043 4.10536 2.79289 4.29289C2.60536 4.48043 2.5 4.73478 2.5 5C2.5 5.26522 2.60536 5.51957 2.79289 5.70711C2.98043 5.89464 3.23478 6 3.5 6H4.5V19C4.50159 20.3256 5.02888 21.5964 5.96622 22.5338C6.90356 23.4711 8.17441 23.9984 9.5 24H15.5C16.8256 23.9984 18.0964 23.4711 19.0338 22.5338C19.9711 21.5964 20.4984 20.3256 20.5 19V6H21.5C21.7652 6 22.0196 5.89464 22.2071 5.70711C22.3946 5.51957 22.5 5.26522 22.5 5C22.5 4.73478 22.3946 4.48043 22.2071 4.29289C22.0196 4.10536 21.7652 4 21.5 4ZM11.5 2H13.5C14.1203 2.00076 14.7251 2.19338 15.2316 2.55144C15.7381 2.90951 16.1214 3.41549 16.329 4H8.671C8.87858 3.41549 9.2619 2.90951 9.76839 2.55144C10.2749 2.19338 10.8797 2.00076 11.5 2ZM18.5 19C18.5 19.7956 18.1839 20.5587 17.6213 21.1213C17.0587 21.6839 16.2957 22 15.5 22H9.5C8.70435 22 7.94129 21.6839 7.37868 21.1213C6.81607 20.5587 6.5 19.7956 6.5 19V6H18.5V19Z" fill="#FF1414"/>
<path id="Vector_2" d="M10.5 18C10.7652 18 11.0196 17.8946 11.2071 17.7071C11.3946 17.5196 11.5 17.2652 11.5 17V11C11.5 10.7348 11.3946 10.4804 11.2071 10.2929C11.0196 10.1054 10.7652 10 10.5 10C10.2348 10 9.98043 10.1054 9.79289 10.2929C9.60536 10.4804 9.5 10.7348 9.5 11V17C9.5 17.2652 9.60536 17.5196 9.79289 17.7071C9.98043 17.8946 10.2348 18 10.5 18Z" fill="#FF1414"/>
<path id="Vector_3" d="M14.5 18C14.7652 18 15.0196 17.8946 15.2071 17.7071C15.3946 17.5196 15.5 17.2652 15.5 17V11C15.5 10.7348 15.3946 10.4804 15.2071 10.2929C15.0196 10.1054 14.7652 10 14.5 10C14.2348 10 13.9804 10.1054 13.7929 10.2929C13.6054 10.4804 13.5 10.7348 13.5 11V17C13.5 17.2652 13.6054 17.5196 13.7929 17.7071C13.9804 17.8946 14.2348 18 14.5 18Z" fill="#FF1414"/>
</g>
<defs>
<clipPath id="clip0_19_131">
<rect width="24" height="24" fill="white" transform="translate(0.5)"/>
</clipPath>
</defs>
</svg>
