<svg width="30" height="30" viewBox="0 0 30 30" fill="none" xmlns="http://www.w3.org/2000/svg">
<g id="upload 1" clip-path="url(#clip0_21_373)">
<path id="Vector" d="M13.7588 3.22252L13.75 22.52C13.75 22.8515 13.8817 23.1695 14.1161 23.4039C14.3505 23.6383 14.6685 23.77 15 23.77C15.3315 23.77 15.6495 23.6383 15.8839 23.4039C16.1183 23.1695 16.25 22.8515 16.25 22.52L16.2588 3.24377L19.8988 6.88502C20.1332 7.11936 20.4511 7.25101 20.7825 7.25101C21.114 7.25101 21.4318 7.11936 21.6663 6.88502C21.9006 6.65061 22.0322 6.33273 22.0322 6.00127C22.0322 5.66982 21.9006 5.35193 21.6663 5.11752L17.6525 1.09877C17.3043 0.750298 16.8908 0.47386 16.4356 0.285255C15.9805 0.096649 15.4927 -0.000427246 15 -0.000427246C14.5073 -0.000427246 14.0195 0.096649 13.5644 0.285255C13.1093 0.47386 12.6958 0.750298 12.3475 1.09877L8.33376 5.11377C8.09942 5.34818 7.96777 5.66607 7.96777 5.99752C7.96777 6.32898 8.09942 6.64686 8.33376 6.88127C8.56817 7.11561 8.88605 7.24726 9.21751 7.24726C9.54896 7.24726 9.86685 7.11561 10.1013 6.88127L13.7588 3.22252Z" fill="#263238"/>
<path id="Vector_2" d="M27.5 21.25V26.25C27.5 26.5815 27.3683 26.8995 27.1339 27.1339C26.8995 27.3683 26.5815 27.5 26.25 27.5H3.75C3.41848 27.5 3.10054 27.3683 2.86612 27.1339C2.6317 26.8995 2.5 26.5815 2.5 26.25V21.25C2.5 20.9185 2.3683 20.6005 2.13388 20.3661C1.89946 20.1317 1.58152 20 1.25 20C0.918479 20 0.600537 20.1317 0.366117 20.3661C0.131696 20.6005 0 20.9185 0 21.25L0 26.25C0 27.2446 0.395088 28.1984 1.09835 28.9017C1.80161 29.6049 2.75544 30 3.75 30H26.25C27.2446 30 28.1984 29.6049 28.9017 28.9017C29.6049 28.1984 30 27.2446 30 26.25V21.25C30 20.9185 29.8683 20.6005 29.6339 20.3661C29.3995 20.1317 29.0815 20 28.75 20C28.4185 20 28.1005 20.1317 27.8661 20.3661C27.6317 20.6005 27.5 20.9185 27.5 21.25Z" fill="#263238"/>
</g>
<defs>
<clipPath id="clip0_21_373">
<rect width="30" height="30" fill="white"/>
</clipPath>
</defs>
</svg>
